<svg xmlns="http://www.w3.org/2000/svg" viewBox="0 0 24 24">
    <g clip-path="url(#a)">
        <g clip-path="url(#b)">
            <path d="M8.7 2c-.7.1-1.4.3-2 .6a7.7 7.7 0 0 0-3.8 10.6l.2.3-.6 1.9-.5 1.8 1.9-.5 1.8-.5.4.2A7.6 7.6 0 1 0 8.7 2.1Zm1.4 3.6c.7.1 1.3.6 1.6 1.2a2.1 2.1 0 0 1 0 2c-.1.4-.3.6-1 1.2l-.5.5v.9H9.1V10l.4-.4c1.3-1.2 1.3-1.2 1.3-1.7a1 1 0 0 0-.4-.9c-.4-.4-1-.4-1.5 0-.3.2-.4.5-.4.7V8H7.3v-.2a2.3 2.3 0 0 1 2.8-2.1Zm8.3 4.7a8.8 8.8 0 0 1-8.6 8.2 6.7 6.7 0 0 0 2 2.3 8 8 0 0 0 1.8 1l2 .2h1.1l1.7-.7.5-.2 1.5.5 1.6.4-.4-1.6L21 19l.2-.5c.3-.5.5-1 .6-1.7l.1-1.2c0-.8 0-1.2-.3-2a8 8 0 0 0-.9-1.7l-1.3-1.4-1-.6v.5Zm-8.2 2.9v.6H9.1v-1.2h1.1v.6Z"/>
        </g>
    </g>
    <defs>
        <clipPath id="a">
            <path fill="#fff" d="M2 2h20v20H2z"/>
        </clipPath>
        <clipPath id="b">
            <path fill="#fff" d="M2 2h20v20H2z"/>
        </clipPath>
    </defs>
</svg>
