<svg xmlns="http://www.w3.org/2000/svg" height="24" viewBox="0 0 24 24" width="24" fill="rgb(93, 147, 253)"><path d="M13.629 22.5H2.25a.75.75 0 0 1-.75-.75V2.25a.75.75 0 0 1 .75-.75h19.5a.75.75 0 0 1 .75.75v11.379a.75.75 0 0 1-.22.53L14.16 22.28a.75.75 0 0 1-.53.219zm0 1.5a2.25 2.25 0 0 0 1.59-.659l8.122-8.122A2.25 2.25 0 0 0 24 13.63V2.25A2.25 2.25 0 0 0 21.75 0H2.25A2.25 2.25 0 0 0 0 2.25v19.5A2.25 2.25 0 0 0 2.25 24h11.379zM15 23.115V15.75a.75.75 0 0 1 .75-.75h7.365a.75.75 0 0 0 0-1.5H15.75a2.25 2.25 0 0 0-2.25 2.25v7.365a.75.75 0 0 0 1.5 0zM6.75 7.5h12a.75.75 0 0 0 0-1.5h-12a.75.75 0 0 0 0 1.5zm0 4.5H12a.75.75 0 0 0 0-1.5H6.75a.75.75 0 0 0 0 1.5z"></path></svg>