<?xml version="1.0" encoding="utf-8"?><svg viewBox="0 0 1280 1122" xmlns="http://www.w3.org/2000/svg" xmlns:xlink="http://www.w3.org/1999/xlink"><style>:root>svg{display:none}:root>svg:target{display:block}</style><svg fill="none" viewBox="0 0 16 12" id="arrow" xmlns="http://www.w3.org/2000/svg"><path d="M10.023.942 15.082 6l-5.059 5.058M.918 6h14.025"/></svg><svg viewBox="0 0 64 64" xml:space="preserve" id="cms" xmlns="http://www.w3.org/2000/svg"><path d="M31.994 18.423c-4.498 0-8.144 3.648-8.144 8.149s3.646 8.149 8.144 8.149 8.144-3.648 8.144-8.149-3.647-8.149-8.144-8.149zm.001 12.247a4.096 4.096 0 1 1 0-8.192 4.096 4.096 0 0 1 0 8.192z"/><path d="M61 4.709H3c-1.65 0-3 1.35-3 3v37.667c0 1.65 1.35 3 3 3h24v6.916h-9.125v4h28.25v-4H37v-6.916h24c1.65 0 3-1.35 3-3V7.709c0-1.65-1.35-3-3-3zm-12.227 24.38-3.723.375a13.273 13.273 0 0 1-1.78 4.292l2.373 2.903-3.557 3.559-2.898-2.373a13.297 13.297 0 0 1-4.295 1.789l-.372 3.718H29.47l-.372-3.718a13.226 13.226 0 0 1-4.296-1.788l-2.896 2.371-3.557-3.559 2.372-2.901a13.293 13.293 0 0 1-1.782-4.295l-3.723-.372v-5.034l3.723-.373c.342-1.55.955-2.997 1.782-4.294l-2.372-2.901 3.557-3.559 2.896 2.371a13.299 13.299 0 0 1 4.295-1.788l.372-3.718h5.051l.372 3.718a13.28 13.28 0 0 1 4.294 1.788l2.898-2.373 3.557 3.559-2.373 2.902a13.302 13.302 0 0 1 1.781 4.293l3.724.372v5.036z"/></svg><svg viewBox="0 0 39 27" id="dollar" xmlns="http://www.w3.org/2000/svg"><path d="M15.729 18.536v-1.929H18.3v-5.786h-.04c-.321.503-.623.724-1.105 1.146l-1.547-1.608 2.973-2.752h2.29v9h2.572v1.929h-7.714Zm10.286-5.143c0-3.656-2.21-8.357-6.43-8.357-4.218 0-6.428 4.7-6.428 8.357 0 3.656 2.21 8.357 6.429 8.357s6.429-4.7 6.429-8.357ZM36.3 18.536a5.153 5.153 0 0 0-5.143 5.143H8.014a5.153 5.153 0 0 0-5.142-5.143V8.25a5.153 5.153 0 0 0 5.142-5.143h23.143A5.153 5.153 0 0 0 36.3 8.25v10.286ZM38.872 1.82c0-.703-.583-1.285-1.286-1.285h-36C.883.536.3 1.118.3 1.82v23.143c0 .703.583 1.286 1.286 1.286h36c.703 0 1.286-.583 1.286-1.286V1.821Z"/></svg><svg viewBox="0 0 11 20" id="facebook" xmlns="http://www.w3.org/2000/svg"><path d="M9.12 3.32H11V.14A26.111 26.111 0 0 0 8.26 0C5.54 0 3.68 1.66 3.68 4.7v2.62H.61v3.56h3.07V20h3.68v-9.12h3.06l.46-3.56H7.36V5.05c0-1.05.28-1.73 1.76-1.73Z"/></svg><svg viewBox="0 0 1024 1024" id="filling" xmlns="http://www.w3.org/2000/svg"><path d="M832 64H192c-17.7 0-32 14.3-32 32v832c0 17.7 14.3 32 32 32h640c17.7 0 32-14.3 32-32V96c0-17.7-14.3-32-32-32zm-40 824H232V687h97.9c11.6 32.8 32 62.3 59.1 84.7 34.5 28.5 78.2 44.3 123 44.3s88.5-15.7 123-44.3c27.1-22.4 47.5-51.9 59.1-84.7H792v-63H643.6l-5.2 24.7C626.4 708.5 573.2 752 512 752s-114.4-43.5-126.5-103.3l-5.2-24.7H232V136h560v752zM320 341h384c4.4 0 8-3.6 8-8v-48c0-4.4-3.6-8-8-8H320c-4.4 0-8 3.6-8 8v48c0 4.4 3.6 8 8 8zm0 160h384c4.4 0 8-3.6 8-8v-48c0-4.4-3.6-8-8-8H320c-4.4 0-8 3.6-8 8v48c0 4.4 3.6 8 8 8z"/></svg><svg fill="none" viewBox="0 0 24 24" id="image" xmlns="http://www.w3.org/2000/svg"><g clip-path="url(#fa)"><path fill="#888" d="m21.5 16.7-2.8-2.8c-1-1-2.7-.6-3.1.7a2 2 0 0 1-2.2 1.2c-2-.5-4.7-3.1-5.2-5.2-.3-.9.3-1.9 1.2-2.2 1.3-.4 1.7-2 .7-3l-2.8-3c-.8-.7-2-.7-2.7 0l-1.9 2c-1.9 2 .2 7.2 4.9 11.9s10 6.9 12 4.9l1.9-2c.7-.7.7-2 0-2.6Z"/></g><defs><clipPath id="fa"><path fill="#fff" d="M2 2h20v20H2z"/></clipPath></defs></svg><svg viewBox="0 0 20 20" id="instagram" xmlns="http://www.w3.org/2000/svg"><path d="M15.34 3.46a1.2 1.2 0 1 0 0 2.4 1.2 1.2 0 0 0 0-2.4Zm4.6 2.42a7.588 7.588 0 0 0-.46-2.43 4.94 4.94 0 0 0-1.16-1.77A4.7 4.7 0 0 0 16.55.53a7.3 7.3 0 0 0-2.43-.47C13.06 0 12.72 0 10 0S6.94 0 5.88.06a7.3 7.3 0 0 0-2.43.47 4.78 4.78 0 0 0-1.77 1.15A4.7 4.7 0 0 0 .53 3.45a7.3 7.3 0 0 0-.47 2.43C0 6.94 0 7.28 0 10s0 3.06.06 4.12a7.3 7.3 0 0 0 .47 2.43 4.7 4.7 0 0 0 1.15 1.77 4.78 4.78 0 0 0 1.77 1.15 7.3 7.3 0 0 0 2.43.47C6.94 20 7.28 20 10 20s3.06 0 4.12-.06a7.3 7.3 0 0 0 2.43-.47 4.7 4.7 0 0 0 1.77-1.15 4.85 4.85 0 0 0 1.16-1.77c.285-.78.44-1.6.46-2.43 0-1.06.06-1.4.06-4.12s0-3.06-.06-4.12ZM18.14 14a5.61 5.61 0 0 1-.34 1.86 3.06 3.06 0 0 1-.75 1.15c-.324.33-.717.586-1.15.75a5.61 5.61 0 0 1-1.86.34c-1 .05-1.37.06-4 .06s-3 0-4-.06a5.73 5.73 0 0 1-1.94-.3 3.27 3.27 0 0 1-1.1-.75 3 3 0 0 1-.74-1.15 5.54 5.54 0 0 1-.4-1.9c0-1-.06-1.37-.06-4s0-3 .06-4a5.54 5.54 0 0 1 .35-1.9A3 3 0 0 1 3 3a3.14 3.14 0 0 1 1.1-.8A5.73 5.73 0 0 1 6 1.86c1 0 1.37-.06 4-.06s3 0 4 .06a5.61 5.61 0 0 1 1.86.34 3.06 3.06 0 0 1 1.19.8c.328.307.584.683.75 1.1.222.609.337 1.252.34 1.9.05 1 .06 1.37.06 4s-.01 3-.06 4ZM10 4.87A5.13 5.13 0 1 0 15.14 10 5.12 5.12 0 0 0 10 4.87Zm0 8.46a3.33 3.33 0 1 1 0-6.66 3.33 3.33 0 0 1 0 6.66Z"/></svg><svg style="enable-background:new 0 0 485.211 485.211" xml:space="preserve" viewBox="0 0 485 485" id="monitor" xmlns="http://www.w3.org/2000/svg"><path d="M121.304 75.816H30.327C13.564 75.816 0 89.409 0 106.141v333.586c0 16.76 13.564 30.322 30.327 30.322h90.978c16.762 0 30.324-13.562 30.324-30.322V106.141c-.001-16.732-13.563-30.325-30.325-30.325zM45.49 379.073c-8.382 0-15.163-6.781-15.163-15.168 0-8.377 6.781-15.158 15.163-15.158 8.38 0 15.161 6.781 15.161 15.158 0 8.387-6.781 15.168-15.161 15.168zm75.814-181.955H30.327v-30.324h90.978v30.324zm0-60.651H30.327v-30.326h90.978v30.326zM318.423 409.396v-30.322h-90.98v30.322c-16.759 0-30.327 13.567-30.327 30.331h151.629c0-16.764-13.562-30.331-30.322-30.331z"/><path d="M454.889 15.163H90.978c-16.762 0-30.327 13.593-30.327 30.327H454.89v242.604H181.955v60.653h272.934c16.759 0 30.322-13.562 30.322-30.332V45.489c0-16.734-13.564-30.326-30.322-30.326zM272.933 333.584c-8.382 0-15.163-6.777-15.163-15.169 0-8.377 6.781-15.158 15.163-15.158 8.383 0 15.164 6.781 15.164 15.158 0 8.392-6.782 15.169-15.164 15.169z"/></svg><svg version="1.0" viewBox="0 0 1280 1122" id="note" xmlns="http://www.w3.org/2000/svg"><path d="M154.3 5.5c-5.4 2.7-9.4 7.1-11.9 13-1.8 4.5-2.1 60.5-.2 66.7 1.6 5.5 7.8 12.1 13.5 14.5 2.6 1.1 8.4 2.3 12.8 2.7 14.5 1.1 26 8.8 32.2 21.4 2.6 5.2 2.8 6.7 2.8 16.7 0 10.4-.2 11.4-3.2 17.6-6.3 12.7-17.6 20-31.7 20.7-4.4.3-10.4-.1-13.2-.7-7-1.6-16.7-8-20.7-13.7-5.7-8.1-6.9-12.5-7.6-28.5-.6-11.7-1.1-15.3-2.7-18.5-2.5-4.6-9-9.9-14.2-11.4-2.3-.6-19.7-1-45.3-1-46.4 0-47.7.1-54.4 6.7-2.1 2-4.6 5.5-5.6 7.7-1.8 4-1.9 12-1.9 221.9V559l2.1 4.5c2.4 5 7.5 9.9 12.8 12.4 3.1 1.4 8.9 1.6 45.1 1.6 46.9 0 46.3.1 54.3-7.4 7.3-6.9 8-8.6 7.2-19.9-1.2-17.1 2.5-28.3 12.2-37.2 12.6-11.5 32.9-13.2 47.5-3.8 20.4 12.9 23.2 43.9 5.6 60.4-6.8 6.4-13.8 9.3-24.8 10.5-13 1.3-20.1 5.5-24.6 14.6-1.8 3.6-1.9 6.6-1.9 46.9v43.1l3 4.9c3.9 6.2 11 11.1 17.3 11.8 18 2.1 22.8 3.8 30.6 10.7 11.7 10.3 15.5 31 8.4 45.9-3.3 6.9-10.9 14.3-18.1 17.6-5.6 2.6-7.2 2.9-16.7 2.9-9.7 0-11-.2-17-3.1-6.8-3.3-10.1-6-14.5-11.8-4.6-6-6.6-13-7.4-26.1-.7-11.1-1.1-12.7-4.2-18.5-1.9-3.5-4.5-7.2-5.9-8.2-4.5-3.3-14.4-4-49.8-3.6-31.7.3-34 .4-38.2 2.4-5.1 2.3-10.2 7.1-12.8 11.8-1.6 2.8-1.7 9.9-2 88.9-.1 56 .1 87.1.8 89.6 1.5 5.8 6.1 11.3 12.1 14.6l5.4 3h101l12.8-6.5 12.9-6.5h10.1c9.2.1 10.8.4 16.2 3 7.6 3.7 14.9 10.9 18.3 18.3 2.4 5.1 2.7 6.9 2.7 16.7 0 9.3-.3 11.8-2.3 15.9-7 15.4-20.8 23.3-38.3 22.4-15.3-.9-25.4-7.7-31.8-21.4-4.1-8.6-6.3-11-12.6-14l-5-2.4H70.2c-47.7 0-47.4 0-54 6.3-1.9 1.8-4.3 5-5.5 7.2-2.2 4-2.2 4.6-2.5 68.3-.2 42.8.1 65.6.8 68.2 1.6 6 6.8 12.1 12.9 15.2l5.5 2.8h1233.1l5-2.4c5.9-2.8 10.8-7.6 12.9-12.8 1.4-3.4 1.6-57.6 1.6-538.5V22.5l-2.4-5c-2.8-5.9-7.6-10.8-12.8-12.9-3.4-1.4-59.2-1.6-554.6-1.6H159.4l-5.1 2.5zm1075.7 551V1064H58l.2-37.3.3-37.2 17.2-.3 17.2-.2 5.4 6.8c12.7 15.9 30.5 26.5 51.7 30.8 9.2 1.8 27.8 1.5 35.5-.6 26.1-7.3 45.8-23.3 57-46.3 11.5-23.8 11.5-50.6 0-74.4-8.9-18.4-23.2-32.3-41.8-40.8-10.1-4.6-18.5-6.5-30.9-7.2-15.6-.8-28.5 2-44.3 9.8l-8.1 3.9H58V757h21.8l.7 4.2c1.8 10.7 8.6 26.1 15.5 35.4 11.7 15.6 29.2 27.5 47.8 32.6 10.9 3 32.4 3 43.3 0 24.8-6.7 46.3-25.2 57.1-48.9 9.1-20.2 9.1-47.4-.1-67.7-10-22-27.2-37.7-53.4-48.4l-2.8-1.2.3-15 .3-15.1 5.8-2.3c27.5-11.2 48.2-34.7 54.8-62.1 3-12.7 2.4-31.2-1.6-43.5-9.2-28.8-31.6-50.2-61-58.1-11.3-3.1-30.7-3-42 0-31.3 8.4-55.6 33.7-62.7 65.3l-2.2 9.8H58V166H79.7l2.1 8.6c7.3 29.6 30.9 54 60.8 62.6 10.4 3 34.2 3.3 44.4.5 24-6.6 44.5-23.6 55.5-46 6.8-13.8 8-19.5 8-37.2 0-17-1.5-23.5-8.5-37.5-9.9-19.7-30.1-37.4-50.2-43.9l-3.8-1.3V49h1042v507.5z"/><path d="M1156.5 194.9c-5.4 1.4-10.5 4.6-66 42-116.5 78.3-134.9 90.6-136 90.9-.7.2-1.6-2.4-2.4-6.5-2.1-11.9-3.3-14.5-8.6-19.9-7.7-7.7-15.5-9.1-29-5-10.1 3.1-17.5 12.7-17.5 22.9 0 5.5 15 57.3 18 62.2 2.6 4.1 5.5 6.6 12.2 10.3 4.6 2.6 6.9 3.2 11.6 3.2 3.2 0 8 .6 10.5 1.4l4.6 1.4 23.8-16.2c13.1-8.9 63.9-43.3 112.8-76.5 49-33.2 90.5-61.8 92.3-63.4 13-12.3 8.8-36.2-7.9-44.8-4.3-2.2-13.8-3.2-18.4-2zM147.6 270c-9.3 2-22.1 7.5-30.4 13.2C90.6 301.3 76 335.3 81.1 367c5.5 34.6 33.4 63.6 67.8 70.5 10.2 2.1 29.4 1.6 38.6-.9 23.7-6.6 44.5-24 55.1-46.1 6.1-12.5 7.6-18.9 8.1-34 .4-10.9.2-14.4-1.6-21.8-4-17-12.1-30.7-25.4-43.3-20.4-19.5-48.2-27.3-76.1-21.4zm32.6 47.6c7.5 3 13.5 7.9 17.8 14.5 4.8 7.5 6.4 14.3 5.8 24.7-.8 14.4-8.7 26-21.6 32-5.1 2.4-6.9 2.7-16.7 2.7-10.1 0-11.5-.2-16.9-2.9-7.9-3.9-14-10.2-17.9-18.4-2.9-6.1-3.2-7.5-3.2-16.7 0-8.7.3-10.7 2.7-15.7 4.8-10.3 14.3-18.5 24.7-21.5 6.1-1.7 19.3-1 25.3 1.3zM330.9 332c-12.9 2.2-21.1 11.5-21.1 24 0 10 4.9 18.2 13.4 22.4l5.2 2.6h165.4c122.7 0 166.5-.3 169.3-1.2 5.1-1.5 11.4-6.9 14.2-12.2 3-5.7 3-16.5 0-22.1-2.7-5.2-7.7-9.9-12.8-12.2-3.8-1.7-12.3-1.8-166.5-1.9-89.4-.1-164.6.2-167.1.6zM750.6 332c-11.2 2-19.6 11-20.4 21.8-.6 8.3 1.2 13.6 6.5 19.3 7.7 8.2 6.1 8 60.9 7.7l48.1-.3 4.9-3c6.9-4.3 10.7-10.8 11.2-19.1.8-11.4-4.2-20.1-14-24.5-5.3-2.4-5.3-2.4-48.8-2.6-23.9-.1-45.7.3-48.4.7zM1156.7 405.1c-5.5 1.3-7.8 2.6-29.5 17.3-77.4 52.2-172.3 115.6-173 115.6-.5 0-1.4-3.3-2.1-7.3-2.3-12.7-6.5-19.8-14.3-23.8-7.8-4-17.8-3.4-28 1.7-7.6 3.9-12.8 12.3-12.8 20.9 0 4.6 13.3 51.8 16.9 60 2.1 4.8 7.2 9.4 14.1 12.9 4.3 2.2 6.5 2.6 13.4 2.6 5.5 0 8.8.5 10.2 1.5 2 1.3 6.1-1.2 71-45.3 37.9-25.7 88.7-60.2 112.9-76.6 24.2-16.4 45.5-31.2 47.3-32.9 10.9-10.4 10.1-28.9-1.8-40.1-6.9-6.5-15.1-8.7-24.3-6.5zM325.7 529.4c-5.9 2.2-10.3 6.2-13.2 12.1-6.5 13.2-1.1 28.2 12.4 34.4 3.3 1.5 18.5 1.6 169.6 1.6h166l4.5-2.1c9.5-4.5 14.4-12.2 14.4-22.9s-4.7-18-14.4-22.4c-4.5-2-5.6-2.1-170-2-135.7 0-166.2.2-169.3 1.3zM746 529.3c-5.2 1.6-13.6 10.5-15 15.8-4.3 16 5.8 30.7 22.3 32.4 3.4.4 25.1.5 48.2.3 41.7-.3 42-.3 46.7-2.6 19.5-9.6 18.1-38.6-2.1-45.8-4.7-1.7-94.8-1.8-100.1-.1zM1154 613.4c-5.6 2-4.4 1.2-103.6 67.9-52.2 35.1-95.3 63.9-95.9 64-.5.1-1.7-3.8-2.7-8.7-2.1-10.4-5.4-16.5-10.9-20.6-5.2-3.7-13.1-5.4-19-4.1-16.1 3.6-24.8 12.2-24.9 24.5 0 5.2 13.7 54 17.1 60.7 2.5 5 6.6 8.7 14.1 12.6 5.8 3 6.8 3.2 12.8 2.7 5.1-.5 7.3-.3 9.8 1l3.3 1.7 105.7-71.7c128.9-87.5 124.1-84.2 126.9-89 3.6-6.4 4.7-12.4 3.4-18.6-3.1-14.8-13.2-23.8-26.6-23.7-3.3 0-7.6.6-9.5 1.3zM747.7 722.4c-13.1 3.6-20.6 18-16.5 31.8 1.6 5.6 7.8 12.1 13.8 14.7 4.9 2.1 5.7 2.2 52.3 1.9 52.6-.3 50.6-.1 58.1-7.5 5-5.1 6.9-10.7 6.4-19.1-.3-5.5-.9-7.8-3.1-11.1-3.7-5.5-9.7-9.7-15.8-11-7.5-1.6-89-1.3-95.2.3zM328 724.9c-11.1 3.4-18.2 12.8-18.2 24.1 0 9.6 4.9 17.6 13.7 22.3l4 2.2 164 .3c152.4.2 164.3.1 168.7-1.5 7.3-2.6 13.8-8 17.1-14.3 2.5-4.8 2.8-6.3 2.4-11.3-.6-6.7-4.1-13.4-9.2-17.3-7.5-5.7 1.2-5.4-176.4-5.3-90 0-164.7.4-166.1.8z"/></svg><svg viewBox="0 0 24 24" id="phone" xmlns="http://www.w3.org/2000/svg"><g clip-path="url(#ka)"><path d="m21.5 16.7-2.8-2.8c-1-1-2.7-.6-3.1.7a2 2 0 0 1-2.2 1.2c-2-.5-4.7-3.1-5.2-5.2-.3-.9.3-1.9 1.2-2.2 1.3-.4 1.7-2 .7-3l-2.8-3c-.8-.7-2-.7-2.7 0l-1.9 2c-1.9 2 .2 7.2 4.9 11.9s10 6.9 12 4.9l1.9-2c.7-.7.7-2 0-2.6Z"/></g><defs><clipPath id="ka"><path d="M2 2h20v20H2z"/></clipPath></defs></svg><svg viewBox="0 0 24 24" id="phone-min" xmlns="http://www.w3.org/2000/svg"><g clip-path="url(#ja)"><path d="m21.5 16.7-2.8-2.8c-1-1-2.7-.6-3.1.7a2 2 0 0 1-2.2 1.2c-2-.5-4.7-3.1-5.2-5.2-.3-.9.3-1.9 1.2-2.2 1.3-.4 1.7-2 .7-3l-2.8-3c-.8-.7-2-.7-2.7 0l-1.9 2c-1.9 2 .2 7.2 4.9 11.9s10 6.9 12 4.9l1.9-2c.7-.7.7-2 0-2.6z"/></g><defs><clipPath id="ja"><path d="M2 2h20v20H2z"/></clipPath></defs></svg><svg fill="none" viewBox="0 0 47 40" id="quote" xmlns="http://www.w3.org/2000/svg"><path d="M12.914 22.857c2.402 0 4.304.802 5.706 2.406 1.501 1.504 2.252 3.509 2.252 6.015 0 2.707-.9 4.862-2.703 6.466C16.468 39.248 14.115 40 11.112 40c-3.504 0-6.257-1.353-8.259-4.06C.951 33.233 0 29.373 0 24.36c0-4.51 1.001-8.67 3.003-12.48C5.005 7.97 8.01 4.06 12.013.15c.1-.1.25-.15.45-.15.3 0 .55.15.751.451.2.3.2.551 0 .752C8.31 6.216 5.856 12.13 5.856 18.947c0 2.807.5 4.863 1.502 6.166.9-1.504 2.753-2.256 5.556-2.256Zm26.128 0c2.402 0 4.304.802 5.706 2.406C46.249 26.767 47 28.772 47 31.278c0 2.707-.901 4.862-2.703 6.466C42.595 39.248 40.243 40 37.24 40c-3.504 0-6.257-1.353-8.26-4.06-1.901-2.707-2.852-6.567-2.852-11.58 0-4.51 1-8.67 3.003-12.48 2.002-3.91 5.005-7.82 9.01-11.73.1-.1.25-.15.45-.15.3 0 .55.15.75.451.201.3.201.551 0 .752-4.904 5.013-7.357 10.927-7.357 17.744 0 2.807.5 4.863 1.502 6.166.9-1.504 2.753-2.256 5.556-2.256Z" fill="#fff"/></svg><svg viewBox="0 0 24 24" id="request" xmlns="http://www.w3.org/2000/svg"><g clip-path="url(#ma)"><g clip-path="url(#mb)"><path d="M8.7 2c-.7.1-1.4.3-2 .6a7.7 7.7 0 0 0-3.8 10.6l.2.3-.6 1.9-.5 1.8 1.9-.5 1.8-.5.4.2A7.6 7.6 0 1 0 8.7 2.1Zm1.4 3.6c.7.1 1.3.6 1.6 1.2a2.1 2.1 0 0 1 0 2c-.1.4-.3.6-1 1.2l-.5.5v.9H9.1V10l.4-.4c1.3-1.2 1.3-1.2 1.3-1.7a1 1 0 0 0-.4-.9c-.4-.4-1-.4-1.5 0-.3.2-.4.5-.4.7V8H7.3v-.2a2.3 2.3 0 0 1 2.8-2.1Zm8.3 4.7a8.8 8.8 0 0 1-8.6 8.2 6.7 6.7 0 0 0 2 2.3 8 8 0 0 0 1.8 1l2 .2h1.1l1.7-.7.5-.2 1.5.5 1.6.4-.4-1.6L21 19l.2-.5c.3-.5.5-1 .6-1.7l.1-1.2c0-.8 0-1.2-.3-2a8 8 0 0 0-.9-1.7l-1.3-1.4-1-.6v.5Zm-8.2 2.9v.6H9.1v-1.2h1.1v.6Z"/></g></g><defs><clipPath id="ma"><path fill="#fff" d="M2 2h20v20H2z"/></clipPath><clipPath id="mb"><path fill="#fff" d="M2 2h20v20H2z"/></clipPath></defs></svg><svg fill="none" viewBox="0 0 14 9" id="select-arrow" xmlns="http://www.w3.org/2000/svg"><path d="m7.576 8.488 5.433-5.922a1.054 1.054 0 0 0 0-1.455c-.388-.415-.97-.415-1.358 0L6.8 6.202l-4.85-5.09C1.56.695.98.695.59 1.111a.976.976 0 0 0-.291.727c0 .311.097.52.291.727l5.433 5.922c.485.416 1.067.416 1.552 0-.097 0-.097 0 0 0Z" fill="#AAA"/></svg><svg xml:space="preserve" viewBox="0 0 32 32" id="site" xmlns="http://www.w3.org/2000/svg"><circle cx="7.5" cy="4.5" r=".5"/><circle cx="5.5" cy="4.5" r=".5"/><circle cx="3.5" cy="4.5" r=".5"/><path d="M30.5 7h-29a.5.5 0 0 1 0-1h29a.5.5 0 0 1 0 1z"/><path d="M29.5 28h-4a.5.5 0 0 1 0-1h4c.275 0 .5-.225.5-.5v-23c0-.275-.225-.5-.5-.5h-27c-.275 0-.5.225-.5.5v23c0 .275.225.5.5.5h4a.5.5 0 0 1 0 1h-4c-.827 0-1.5-.673-1.5-1.5v-23C1 2.673 1.673 2 2.5 2h27c.827 0 1.5.673 1.5 1.5v23c0 .827-.673 1.5-1.5 1.5z"/><path d="M22.625 30.044a.512.512 0 0 1-.222-.052L16 26.818l-6.403 3.174a.5.5 0 0 1-.717-.521l1.04-7.07-4.998-5.11a.499.499 0 0 1 .274-.843l7.047-1.197.898-1.716a.506.506 0 0 1 .676-.211.502.502 0 0 1 .211.676l-1.014 1.935a.506.506 0 0 1-.359.261l-6.35 1.079 4.503 4.604c.109.111.16.268.138.422l-.937 6.371 5.77-2.859a.507.507 0 0 1 .443 0l5.77 2.859-.937-6.371a.5.5 0 0 1 .138-.422l4.503-4.604-6.35-1.079a.503.503 0 0 1-.359-.261L16 10.23l-.728 1.391a.5.5 0 0 1-.887-.463l1.171-2.237c.174-.329.713-.33.887-.001l3.314 6.331 7.047 1.197a.5.5 0 0 1 .274.843l-4.998 5.11 1.04 7.07a.504.504 0 0 1-.495.573z"/></svg><svg viewBox="0 0 40 43" id="text" xmlns="http://www.w3.org/2000/svg"><path d="M15.993 23.372v-1.285c0-.362.281-.643.643-.643H30.78c.361 0 .643.281.643.643v1.285a.635.635 0 0 1-.643.643H16.636a.635.635 0 0 1-.643-.643ZM16.636 26.587H30.78c.361 0 .643.281.643.643v1.285a.635.635 0 0 1-.643.643H16.636a.635.635 0 0 1-.643-.643V27.23c0-.362.281-.643.643-.643ZM16.636 31.73H30.78c.361 0 .643.28.643.642v1.286a.635.635 0 0 1-.643.643H16.636a.635.635 0 0 1-.643-.643v-1.286c0-.361.281-.642.643-.642Z"/><path fill-rule="evenodd" clip-rule="evenodd" d="M8.279 15.315a7.415 7.415 0 1 1 7.173-9.3h12.755c1.065 0 2.552.623 3.295 1.366l6.268 6.268c.743.744 1.366 2.23 1.366 3.295v23.143a1.93 1.93 0 0 1-1.928 1.928h-27a1.93 1.93 0 0 1-1.93-1.928V15.315Zm2.571-.458a7.421 7.421 0 0 0 4.813-6.27h10.616v8.357a1.93 1.93 0 0 0 1.928 1.928h8.358v20.572H10.85V14.857Zm18.824-5.668c-.14-.14-.482-.321-.824-.442v7.554h7.554c-.12-.341-.301-.683-.442-.824L29.674 9.19ZM9.279 8.9h4v-2h-4v-4h-2v4h-4v2h4v4h2v-4Z"/></svg><svg viewBox="0 0 23 20" id="twitter" xmlns="http://www.w3.org/2000/svg"><path d="M22.991 1.95a1 1 0 0 0-1.51-.86 7.48 7.48 0 0 1-1.873.794A5.152 5.152 0 0 0 16.233.642a5.233 5.233 0 0 0-5.223 5.063 11.032 11.032 0 0 1-6.814-3.924 1.011 1.011 0 0 0-.857-.365.998.998 0 0 0-.785.5 5.275 5.275 0 0 0-.242 4.769l-.002.002a1.041 1.041 0 0 0-.496.888c-.001.147.007.294.027.44a5.185 5.185 0 0 0 1.568 3.312.999.999 0 0 0-.066.77 5.204 5.204 0 0 0 2.362 2.921 7.465 7.465 0 0 1-3.59.449A1 1 0 0 0 1.45 17.3a12.942 12.942 0 0 0 7.01 2.061 12.788 12.788 0 0 0 12.465-9.363c.353-1.183.533-2.412.535-3.646l-.001-.2a5.77 5.77 0 0 0 1.532-4.202Zm-3.306 3.212a.995.995 0 0 0-.234.702c.01.165.009.331.009.488a10.826 10.826 0 0 1-.454 3.08 10.685 10.685 0 0 1-10.546 7.93c-.86 0-1.715-.101-2.55-.301a9.48 9.48 0 0 0 2.942-1.564 1.001 1.001 0 0 0-.602-1.786 3.208 3.208 0 0 1-2.214-.935c.15-.028.298-.063.445-.105a1 1 0 0 0-.08-1.944 3.197 3.197 0 0 1-2.25-1.725c.181.025.363.04.545.046a1.021 1.021 0 0 0 .984-.696 1 1 0 0 0-.4-1.137A3.196 3.196 0 0 1 3.86 4.344a13.014 13.014 0 0 0 8.21 3.48 1.02 1.02 0 0 0 .817-.36 1 1 0 0 0 .206-.867 3.164 3.164 0 0 1-.087-.729 3.23 3.23 0 0 1 4.506-2.962c.403.176.766.433 1.065.756a.993.993 0 0 0 .921.298 9.27 9.27 0 0 0 1.212-.322 6.679 6.679 0 0 1-1.026 1.524Z"/></svg></svg>